<?xml version="1.0" encoding="UTF-8" standalone="no"?>
<!-- Generator: Adobe Illustrator 15.1.0, SVG Export Plug-In . SVG Version: 6.00 Build 0)  -->

<svg
   xmlns:dc="http://purl.org/dc/elements/1.1/"
   xmlns:cc="http://creativecommons.org/ns#"
   xmlns:rdf="http://www.w3.org/1999/02/22-rdf-syntax-ns#"
   xmlns:svg="http://www.w3.org/2000/svg"
   xmlns="http://www.w3.org/2000/svg"
   xmlns:sodipodi="http://sodipodi.sourceforge.net/DTD/sodipodi-0.dtd"
   xmlns:inkscape="http://www.inkscape.org/namespaces/inkscape"
   version="1.1"
   id="Layer_1"
   x="0px"
   y="0px"
   width="156.28"
   height="330.89001"
   viewBox="0 0 156.27997 330.89"
   enable-background="new 0 0 595.28 841.89"
   xml:space="preserve"
   inkscape:version="0.48.2 r9819"
   sodipodi:docname="FreeRDP_Logo_Icon.svg"><metadata
   id="metadata3183"><rdf:RDF><cc:Work
       rdf:about=""><dc:format>image/svg+xml</dc:format><dc:type
         rdf:resource="http://purl.org/dc/dcmitype/StillImage" /><dc:title></dc:title></cc:Work></rdf:RDF></metadata><defs
   id="defs3181" /><sodipodi:namedview
   pagecolor="#ffffff"
   bordercolor="#666666"
   borderopacity="1"
   objecttolerance="10"
   gridtolerance="10"
   guidetolerance="10"
   inkscape:pageopacity="0"
   inkscape:pageshadow="2"
   inkscape:window-width="1680"
   inkscape:window-height="1026"
   id="namedview3179"
   showgrid="false"
   inkscape:zoom="1.0440794"
   inkscape:cx="297.64001"
   inkscape:cy="420.94501"
   inkscape:window-x="0"
   inkscape:window-y="24"
   inkscape:window-maximized="1"
   inkscape:current-layer="Layer_1" />
<g
   id="g3113"
   transform="translate(-77.580307,-225.58722)">
	<path
   d="m 105.786,546.861 c 0,0 1.827,-5.113 14.604,-4.562 8.618,0.371 28.295,-13.676 31.201,-13.348 2.907,0.329 43.772,6.145 46.706,9.557 2.932,3.411 2.338,7.989 -52.119,13.721 -4.834,0.508 -11.943,-2.013 -11.943,-2.013 0,0 -1.745,0.939 -7.113,1.207 -52.983,2.65 -21.237,-3.128 -21.336,-4.562 z"
   id="path3115"
   inkscape:connector-curvature="0"
   style="fill:#073653" />
	<path
   d="m 131.679,264.512 c 0,0 4.999,-3.887 7.219,0.555 2.22,4.442 9.994,16.656 12.214,20.542 2.222,3.886 4.133,10.363 2.222,17.211 -2.222,7.958 -12.215,13.881 -18.322,8.884 -6.107,-4.997 -3.333,-47.192 -3.333,-47.192 z"
   id="path3117"
   inkscape:connector-curvature="0"
   style="fill:#6eb7c8" />
	<path
   d="m 132.271,266.181 c 0,0 9.259,14.083 11.424,18.692 5.28,11.246 3.085,17.478 3.085,17.478 l -7.328,4.213 h -11.391 l 4.21,-40.383 z"
   id="path3119"
   inkscape:connector-curvature="0"
   style="fill:#073653" />
	<path
   d="m 134.342,522.686 c 0,0 4.208,7.815 17.767,12.77 22.035,8.05 21.536,0.396 28.316,-4.44 16.667,-11.893 -7.761,-41.455 -17.754,-41.455 -9.993,0 -28.329,33.125 -28.329,33.125 z"
   id="path3121"
   inkscape:connector-curvature="0"
   style="fill:#285d77" />
	<path
   d="m 196.919,482.777 c 0,0 -7.052,-12.532 3.692,-22.829 9.35,-8.962 22.908,-7.978 28.134,-5.807 6.39,2.657 -11.644,-2.791 -4.631,10.987 2.955,5.807 6.27,12.232 6.293,17.396 0.029,5.924 -5.368,13.694 -14.569,15.172 -18.565,2.98 -18.919,-14.919 -18.919,-14.919 z"
   id="path3123"
   inkscape:connector-curvature="0"
   style="fill:#6eb7c8" />
	<path
   d="m 148.975,406.278 c 28.991,52.56 32.934,52.786 48.212,69.068 18.391,19.604 22.216,31.234 17.199,48.039 -2.504,8.393 -13.371,19.722 -22.056,21.23 -3.638,0.632 -8.318,1.739 -13.16,1.729 -3.735,-0.006 -7.771,-1.894 -10.846,-4.232 -13.879,-10.548 -0.704,-20.399 -0.704,-20.399 3.883,-1.98 6.795,-3.271 14.585,-1.809 7.278,1.371 -11.391,-1.107 -17.215,-13.879 -5.842,-12.82 -20.679,-108.203 -16.015,-99.747 z"
   id="path3125"
   inkscape:connector-curvature="0"
   style="fill:#4b8ca1" />
	<path
   d="m 92.815,326.14 c 0,0 -2.032,-27.629 2.774,-42.801 5.553,-17.531 28.518,-52.341 41.088,-53.805 9.115,-1.062 6.79,8.181 2.562,17.416 -4.228,9.234 -7.179,29.775 -4.026,51.798 3.684,25.726 -42.398,27.392 -42.398,27.392 z"
   id="path3127"
   inkscape:connector-curvature="0"
   style="fill:#4b8ca1" />
	<path
   d="m 93.163,382.517 c 9.9,16.638 21.397,25.797 16.211,45.291 -7.791,29.277 -12.932,39.544 -11.874,55.064 0.756,11.085 3.861,29.47 13.082,46.104 3.605,6.503 6.292,11.589 9.814,14.446 2.67,2.166 14.007,2.285 17.808,0.987 15.952,-5.441 36.358,-58.249 28.475,-85.761 -8.789,-30.665 -16.681,-37.124 -8.19,-51.713 14.275,-24.534 23.86,-32.658 17.444,-69.781 -11.496,-66.536 -107.091,-36.166 -91.445,24.704 0.649,2.526 4.069,12.915 8.675,20.659 z"
   id="path3129"
   inkscape:connector-curvature="0"
   style="fill:#6eb7c8" />
	<g
   id="g3131">
		<circle
   cx="120.076"
   cy="346.68799"
   r="17.013"
   id="circle3133"
   d="m 137.089,346.68799 c 0,9.39602 -7.61698,17.013 -17.013,17.013 -9.39602,0 -17.013,-7.61698 -17.013,-17.013 0,-9.39602 7.61698,-17.013 17.013,-17.013 9.39602,0 17.013,7.61698 17.013,17.013 z"
   sodipodi:cx="120.076"
   sodipodi:cy="346.68799"
   sodipodi:rx="17.013"
   sodipodi:ry="17.013"
   style="fill:#073653" />
		<circle
   cx="119.767"
   cy="347.828"
   r="13.408"
   id="circle3135"
   d="m 133.175,347.828 c 0,7.40504 -6.00297,13.408 -13.408,13.408 -7.40504,0 -13.408,-6.00296 -13.408,-13.408 0,-7.40503 6.00296,-13.408 13.408,-13.408 7.40503,0 13.408,6.00297 13.408,13.408 z"
   sodipodi:cx="119.767"
   sodipodi:cy="347.828"
   sodipodi:rx="13.408"
   sodipodi:ry="13.408"
   style="fill:#ffffff" />
		<circle
   cx="124.496"
   cy="343.702"
   r="6.3249998"
   id="circle3137"
   d="m 130.821,343.702 c 0,3.4932 -2.8318,6.325 -6.325,6.325 -3.4932,0 -6.325,-2.8318 -6.325,-6.325 0,-3.49321 2.8318,-6.325 6.325,-6.325 3.4932,0 6.325,2.83179 6.325,6.325 z"
   sodipodi:cx="124.496"
   sodipodi:cy="343.702"
   sodipodi:rx="6.3249998"
   sodipodi:ry="6.3249998"
   style="fill:#073653" />
	</g>
	<path
   d="m 154.07,356.167 c 0,0 4.619,-6.97 17.013,-4.983 3.049,0.488 0.928,4.058 0.928,4.058 l -6.606,7.113 c 0,0 -0.638,1.645 -2.238,0.213 -1.11,-0.993 -7.495,-2.358 -8.759,-3.453 -1.262,-1.094 -0.338,-2.948 -0.338,-2.948 z"
   id="path3139"
   inkscape:connector-curvature="0"
   style="fill:#073653" />
	<path
   d="m 163.698,363.061 v 5.182 l -0.464,3.515 -4.442,7.218 -1.943,2.591 c 0,0 -1.296,2.592 1.109,1.019 2.407,-1.573 3.517,-4.534 3.517,-4.534 l 2.499,-3.609 c 0,0 1.666,-1.666 1.758,-3.608 0.093,-1.943 -0.092,-2.684 -0.369,-4.811 -0.279,-2.129 -0.187,-3.518 -0.649,-3.703 -0.462,-0.185 -1.016,0.74 -1.016,0.74 z"
   id="path3141"
   inkscape:connector-curvature="0"
   style="fill:#073653" />
	<path
   d="m 166.077,326.123 c 0,0 -0.223,2.203 1.22,3.51 1.441,1.306 6.88,1.194 7.061,0.293 0.181,-0.901 -0.496,-4.686 -2.298,-4.867 -1.802,-0.18 -4.77,-0.08 -5.271,0 -0.342,0.055 -0.725,0.213 -0.712,1.064 z"
   id="path3143"
   inkscape:connector-curvature="0"
   style="fill:#073653" />
	<path
   d="m 127.308,336.987 c 0.864,1.3 0.555,3.025 -0.691,3.855 -1.243,0.828 -2.955,0.447 -3.82,-0.854 -0.866,-1.3 -0.558,-3.026 0.689,-3.855 1.243,-0.828 2.955,-0.446 3.822,0.854 z"
   id="path3145"
   inkscape:connector-curvature="0"
   style="fill:#fffaea" />
	<path
   d="m 170.385,352.685 c 0.055,0.84 -1.571,1.633 -3.635,1.772 -2.06,0.139 -3.781,-0.429 -3.836,-1.269 -0.057,-0.84 1.569,-1.635 3.633,-1.773 2.06,-0.139 3.781,0.43 3.838,1.27 z"
   id="path3147"
   inkscape:connector-curvature="0"
   style="fill:#fffaea" />
	<path
   d="m 131.585,545.604 c -13.488,7.125 -13.458,-47.938 -10.577,-53.402 -1.806,7.294 7.77,54.109 10.577,53.402 -0.444,0.235 2.567,-0.648 0,0 z"
   id="path3149"
   inkscape:connector-curvature="0"
   style="fill:#ffffff" />
</g>

</svg>