<?xml version="1.0" encoding="utf-8"?>
<!-- Generator: Adobe Illustrator 15.1.0, SVG Export Plug-In . SVG Version: 6.00 Build 0)  -->
<!DOCTYPE svg PUBLIC "-//W3C//DTD SVG 1.1//EN" "http://www.w3.org/Graphics/SVG/1.1/DTD/svg11.dtd">
<svg version="1.1" id="Layer_1" xmlns="http://www.w3.org/2000/svg" xmlns:xlink="http://www.w3.org/1999/xlink" x="0px" y="0px"
	 width="595.28px" height="841.89px" viewBox="0 0 595.28 841.89" enable-background="new 0 0 595.28 841.89" xml:space="preserve">
<g>
	<path fill="#073653" d="M105.786,546.861c0,0,1.827-5.113,14.604-4.562c8.618,0.371,28.295-13.676,31.201-13.348
		c2.907,0.329,43.772,6.145,46.706,9.557c2.932,3.411,2.338,7.989-52.119,13.721c-4.834,0.508-11.943-2.013-11.943-2.013
		s-1.745,0.939-7.113,1.207C74.139,554.073,105.885,548.295,105.786,546.861z"/>
	<path fill="#6EB7C8" d="M131.679,264.512c0,0,4.999-3.887,7.219,0.555s9.994,16.656,12.214,20.542
		c2.222,3.886,4.133,10.363,2.222,17.211c-2.222,7.958-12.215,13.881-18.322,8.884S131.679,264.512,131.679,264.512z"/>
	<path fill="#073653" d="M132.271,266.181c0,0,9.259,14.083,11.424,18.692c5.28,11.246,3.085,17.478,3.085,17.478l-7.328,4.213
		h-11.391L132.271,266.181z"/>
	<path fill="#285D77" d="M134.342,522.686c0,0,4.208,7.815,17.767,12.77c22.035,8.05,21.536,0.396,28.316-4.44
		c16.667-11.893-7.761-41.455-17.754-41.455S134.342,522.686,134.342,522.686z"/>
	<path fill="#6EB7C8" d="M196.919,482.777c0,0-7.052-12.532,3.692-22.829c9.35-8.962,22.908-7.978,28.134-5.807
		c6.39,2.657-11.644-2.791-4.631,10.987c2.955,5.807,6.27,12.232,6.293,17.396c0.029,5.924-5.368,13.694-14.569,15.172
		C197.273,500.676,196.919,482.777,196.919,482.777z"/>
	<path fill="#4B8CA1" d="M148.975,406.278c28.991,52.56,32.934,52.786,48.212,69.068c18.391,19.604,22.216,31.234,17.199,48.039
		c-2.504,8.393-13.371,19.722-22.056,21.23c-3.638,0.632-8.318,1.739-13.16,1.729c-3.735-0.006-7.771-1.894-10.846-4.232
		c-13.879-10.548-0.704-20.399-0.704-20.399c3.883-1.98,6.795-3.271,14.585-1.809c7.278,1.371-11.391-1.107-17.215-13.879
		C159.148,493.205,144.311,397.822,148.975,406.278z"/>
	<path fill="#4B8CA1" d="M92.815,326.14c0,0-2.032-27.629,2.774-42.801c5.553-17.531,28.518-52.341,41.088-53.805
		c9.115-1.062,6.79,8.181,2.562,17.416c-4.228,9.234-7.179,29.775-4.026,51.798C138.897,324.474,92.815,326.14,92.815,326.14z"/>
	<path fill="#6EB7C8" d="M93.163,382.517c9.9,16.638,21.397,25.797,16.211,45.291c-7.791,29.277-12.932,39.544-11.874,55.064
		c0.756,11.085,3.861,29.47,13.082,46.104c3.605,6.503,6.292,11.589,9.814,14.446c2.67,2.166,14.007,2.285,17.808,0.987
		c15.952-5.441,36.358-58.249,28.475-85.761c-8.789-30.665-16.681-37.124-8.19-51.713c14.275-24.534,23.86-32.658,17.444-69.781
		c-11.496-66.536-107.091-36.166-91.445,24.704C85.137,364.384,88.557,374.773,93.163,382.517z"/>
	<g>
		<circle fill="#073653" cx="120.076" cy="346.688" r="17.013"/>
		<circle fill="#FFFFFF" cx="119.767" cy="347.828" r="13.408"/>
		<circle fill="#073653" cx="124.496" cy="343.702" r="6.325"/>
	</g>
	<path fill="#073653" d="M154.07,356.167c0,0,4.619-6.97,17.013-4.983c3.049,0.488,0.928,4.058,0.928,4.058l-6.606,7.113
		c0,0-0.638,1.645-2.238,0.213c-1.11-0.993-7.495-2.358-8.759-3.453C153.146,358.021,154.07,356.167,154.07,356.167z"/>
	<path fill="#073653" d="M163.698,363.061v5.182l-0.464,3.515l-4.442,7.218l-1.943,2.591c0,0-1.296,2.592,1.109,1.019
		c2.407-1.573,3.517-4.534,3.517-4.534l2.499-3.609c0,0,1.666-1.666,1.758-3.608c0.093-1.943-0.092-2.684-0.369-4.811
		c-0.279-2.129-0.187-3.518-0.649-3.703C164.252,362.136,163.698,363.061,163.698,363.061z"/>
	<path fill="#073653" d="M166.077,326.123c0,0-0.223,2.203,1.22,3.51c1.441,1.306,6.88,1.194,7.061,0.293
		c0.181-0.901-0.496-4.686-2.298-4.867c-1.802-0.18-4.77-0.08-5.271,0C166.447,325.114,166.064,325.272,166.077,326.123z"/>
	<path fill="#FFFAEA" d="M127.308,336.987c0.864,1.3,0.555,3.025-0.691,3.855c-1.243,0.828-2.955,0.447-3.82-0.854
		c-0.866-1.3-0.558-3.026,0.689-3.855C124.729,335.305,126.441,335.687,127.308,336.987z"/>
	<path fill="#FFFAEA" d="M170.385,352.685c0.055,0.84-1.571,1.633-3.635,1.772c-2.06,0.139-3.781-0.429-3.836-1.269
		c-0.057-0.84,1.569-1.635,3.633-1.773C168.607,351.276,170.328,351.845,170.385,352.685z"/>
	<path fill="#FFFFFF" d="M131.585,545.604c-13.488,7.125-13.458-47.938-10.577-53.402
		C119.202,499.496,128.778,546.311,131.585,545.604C131.141,545.839,134.152,544.956,131.585,545.604z"/>
</g>
<g>
	<path fill="#6EB7C8" d="M399.81,352.566c0,0,9.985-7.765,14.421,1.109c4.436,8.874,19.966,33.275,24.4,41.039
		c4.44,7.764,8.257,20.702,4.44,34.384c-4.44,15.9-24.405,27.731-36.603,17.748C394.265,436.863,399.81,352.566,399.81,352.566z"/>
	<path fill="#073653" d="M400.991,355.899c0,0,18.497,28.135,22.824,37.343c10.547,22.466,6.163,34.917,6.163,34.917l-14.64,8.417
		h-22.755L400.991,355.899z"/>
	<path fill="#4B8CA1" d="M322.172,475.686c0,0-4.061-55.198,5.539-85.509c11.095-35.023,56.975-104.564,82.084-107.489
		c18.211-2.121,13.566,16.343,5.117,34.792c-8.443,18.447-14.342,59.483-8.043,103.481
		C414.23,472.354,322.172,475.686,322.172,475.686z"/>
	<path fill="#6EB7C8" d="M307.117,552.297h184.511c1.446-14.486,0.53-31.805-3.409-54.607
		c-22.964-132.923-213.941-72.252-182.685,49.352C305.814,548.13,306.353,549.954,307.117,552.297z"/>
	<g>
		<path fill="#073653" d="M410.617,516.731c0,18.771-15.217,33.986-33.985,33.986c-18.773,0-33.989-15.216-33.989-33.986
			s15.216-33.986,33.989-33.986C395.4,482.745,410.617,497.961,410.617,516.731z"/>
		<path fill="#FFFFFF" d="M402.798,519.012c0,14.797-11.995,26.786-26.785,26.786c-14.795,0-26.785-11.989-26.785-26.786
			c0-14.794,11.99-26.787,26.785-26.787C390.803,492.225,402.798,504.218,402.798,519.012z"/>
		<circle fill="#073653" cx="385.462" cy="510.769" r="12.635"/>
	</g>
	<path fill="#073653" d="M444.545,535.671c0,0,9.226-13.926,33.985-9.954c6.091,0.975,1.854,8.107,1.854,8.107l-13.198,14.207
		c0,0-1.274,3.289-4.472,0.428c-2.218-1.983-14.973-4.712-17.497-6.898C442.697,539.374,444.545,535.671,444.545,535.671z"/>
	<path fill="#073653" d="M468.529,475.648c0,0-0.441,4.401,2.437,7.013c2.88,2.608,13.743,2.385,14.108,0.584
		c0.359-1.798-0.994-9.36-4.592-9.723c-3.603-0.359-9.532-0.159-10.532,0C469.27,473.635,468.503,473.949,468.529,475.648z"/>
	<path fill="#FFFAEA" d="M391.079,497.354c1.723,2.599,1.109,6.043-1.38,7.7c-2.483,1.655-5.903,0.895-7.631-1.704
		c-1.734-2.598-1.114-6.046,1.373-7.7C385.925,493.994,389.345,494.756,391.079,497.354z"/>
	<path fill="#FFFAEA" d="M477.135,528.714c0.11,1.681-3.139,3.263-7.263,3.541c-4.111,0.279-7.553-0.857-7.662-2.535
		c-0.115-1.679,3.134-3.266,7.256-3.542C473.585,525.899,477.021,527.035,477.135,528.714z"/>
	<path fill="#073653" d="M466.782,552.297c-0.214-2.491-0.296-4.063-0.975-4.333c-0.923-0.368-2.032,1.479-2.032,1.479v2.854
		H466.782z"/>
</g>
</svg>
