<?xml version="1.0" encoding="UTF-8" standalone="no"?>
<!-- Generator: Adobe Illustrator 15.1.0, SVG Export Plug-In . SVG Version: 6.00 Build 0)  -->

<svg
   xmlns:dc="http://purl.org/dc/elements/1.1/"
   xmlns:cc="http://creativecommons.org/ns#"
   xmlns:rdf="http://www.w3.org/1999/02/22-rdf-syntax-ns#"
   xmlns:svg="http://www.w3.org/2000/svg"
   xmlns="http://www.w3.org/2000/svg"
   xmlns:sodipodi="http://sodipodi.sourceforge.net/DTD/sodipodi-0.dtd"
   xmlns:inkscape="http://www.inkscape.org/namespaces/inkscape"
   version="1.1"
   id="Layer_1"
   x="0px"
   y="0px"
   width="199.28"
   height="277.89001"
   viewBox="0 0 199.27997 277.89"
   enable-background="new 0 0 595.28 841.89"
   xml:space="preserve"
   inkscape:version="0.48.2 r9819"
   sodipodi:docname="FreeRDP_Logo_Icon.svg"><metadata
   id="metadata73"><rdf:RDF><cc:Work
       rdf:about=""><dc:format>image/svg+xml</dc:format><dc:type
         rdf:resource="http://purl.org/dc/dcmitype/StillImage" /><dc:title></dc:title></cc:Work></rdf:RDF></metadata><defs
   id="defs71" /><sodipodi:namedview
   pagecolor="#ffffff"
   bordercolor="#666666"
   borderopacity="1"
   objecttolerance="10"
   gridtolerance="10"
   guidetolerance="10"
   inkscape:pageopacity="0"
   inkscape:pageshadow="2"
   inkscape:window-width="1680"
   inkscape:window-height="1026"
   id="namedview69"
   showgrid="false"
   inkscape:zoom="1.1212866"
   inkscape:cx="295.91524"
   inkscape:cy="356.32008"
   inkscape:window-x="0"
   inkscape:window-y="24"
   inkscape:window-maximized="1"
   inkscape:current-layer="Layer_1" />

<g
   id="g41"
   transform="translate(-297.8721,-278.62031)">
	<path
   d="m 399.81,352.566 c 0,0 9.985,-7.765 14.421,1.109 4.436,8.874 19.966,33.275 24.4,41.039 4.44,7.764 8.257,20.702 4.44,34.384 -4.44,15.9 -24.405,27.731 -36.603,17.748 -12.203,-9.983 -6.658,-94.28 -6.658,-94.28 z"
   id="path43"
   inkscape:connector-curvature="0"
   style="fill:#6eb7c8" />
	<path
   d="m 400.991,355.899 c 0,0 18.497,28.135 22.824,37.343 10.547,22.466 6.163,34.917 6.163,34.917 l -14.64,8.417 h -22.755 l 8.408,-80.677 z"
   id="path45"
   inkscape:connector-curvature="0"
   style="fill:#073653" />
	<path
   d="m 322.172,475.686 c 0,0 -4.061,-55.198 5.539,-85.509 11.095,-35.023 56.975,-104.564 82.084,-107.489 18.211,-2.121 13.566,16.343 5.117,34.792 -8.443,18.447 -14.342,59.483 -8.043,103.481 7.361,51.393 -84.697,54.725 -84.697,54.725 z"
   id="path47"
   inkscape:connector-curvature="0"
   style="fill:#4b8ca1" />
	<path
   d="m 307.117,552.297 h 184.511 c 1.446,-14.486 0.53,-31.805 -3.409,-54.607 -22.964,-132.923 -213.941,-72.252 -182.685,49.352 0.28,1.088 0.819,2.912 1.583,5.255 z"
   id="path49"
   inkscape:connector-curvature="0"
   style="fill:#6eb7c8" />
	<g
   id="g51">
		<path
   d="m 410.617,516.731 c 0,18.771 -15.217,33.986 -33.985,33.986 -18.773,0 -33.989,-15.216 -33.989,-33.986 0,-18.77 15.216,-33.986 33.989,-33.986 18.768,0 33.985,15.216 33.985,33.986 z"
   id="path53"
   inkscape:connector-curvature="0"
   style="fill:#073653" />
		<path
   d="m 402.798,519.012 c 0,14.797 -11.995,26.786 -26.785,26.786 -14.795,0 -26.785,-11.989 -26.785,-26.786 0,-14.794 11.99,-26.787 26.785,-26.787 14.79,0 26.785,11.993 26.785,26.787 z"
   id="path55"
   inkscape:connector-curvature="0"
   style="fill:#ffffff" />
		<circle
   cx="385.46201"
   cy="510.76901"
   r="12.635"
   id="circle57"
   d="m 398.09701,510.76901 c 0,6.97812 -5.65689,12.635 -12.635,12.635 -6.97812,0 -12.635,-5.65688 -12.635,-12.635 0,-6.97812 5.65688,-12.635 12.635,-12.635 6.97811,0 12.635,5.65688 12.635,12.635 z"
   sodipodi:cx="385.46201"
   sodipodi:cy="510.76901"
   sodipodi:rx="12.635"
   sodipodi:ry="12.635"
   style="fill:#073653" />
	</g>
	<path
   d="m 444.545,535.671 c 0,0 9.226,-13.926 33.985,-9.954 6.091,0.975 1.854,8.107 1.854,8.107 l -13.198,14.207 c 0,0 -1.274,3.289 -4.472,0.428 -2.218,-1.983 -14.973,-4.712 -17.497,-6.898 -2.52,-2.187 -0.672,-5.89 -0.672,-5.89 z"
   id="path59"
   inkscape:connector-curvature="0"
   style="fill:#073653" />
	<path
   d="m 468.529,475.648 c 0,0 -0.441,4.401 2.437,7.013 2.88,2.608 13.743,2.385 14.108,0.584 0.359,-1.798 -0.994,-9.36 -4.592,-9.723 -3.603,-0.359 -9.532,-0.159 -10.532,0 -0.68,0.113 -1.447,0.427 -1.421,2.126 z"
   id="path61"
   inkscape:connector-curvature="0"
   style="fill:#073653" />
	<path
   d="m 391.079,497.354 c 1.723,2.599 1.109,6.043 -1.38,7.7 -2.483,1.655 -5.903,0.895 -7.631,-1.704 -1.734,-2.598 -1.114,-6.046 1.373,-7.7 2.484,-1.656 5.904,-0.894 7.638,1.704 z"
   id="path63"
   inkscape:connector-curvature="0"
   style="fill:#fffaea" />
	<path
   d="m 477.135,528.714 c 0.11,1.681 -3.139,3.263 -7.263,3.541 -4.111,0.279 -7.553,-0.857 -7.662,-2.535 -0.115,-1.679 3.134,-3.266 7.256,-3.542 4.119,-0.279 7.555,0.857 7.669,2.536 z"
   id="path65"
   inkscape:connector-curvature="0"
   style="fill:#fffaea" />
	<path
   d="m 466.782,552.297 c -0.214,-2.491 -0.296,-4.063 -0.975,-4.333 -0.923,-0.368 -2.032,1.479 -2.032,1.479 v 2.854 h 3.007 z"
   id="path67"
   inkscape:connector-curvature="0"
   style="fill:#073653" />
</g>
</svg>