<?xml version="1.0" encoding="utf-8"?>
<!-- Generator: Adobe Illustrator 28.0.0, SVG Export Plug-In . SVG Version: 6.00 Build 0)  -->
<svg version="1.1" id="Layer_1" xmlns="http://www.w3.org/2000/svg" xmlns:xlink="http://www.w3.org/1999/xlink" x="0px" y="0px"
	 viewBox="0 0 864.5 361.7" style="enable-background:new 0 0 864.5 361.7;" xml:space="preserve">
<style type="text/css">
	.st0{display:none;fill-rule:evenodd;clip-rule:evenodd;fill:#000100;}
	.st1{display:none;fill:#231F20;enable-background:new    ;}
	.st2{font-family:'ArialMT';}
	.st3{font-size:48px;}
	.st4{display:none;}
	.st5{display:inline;fill:#231F20;}
	.st6{fill:#7F7F7F;}
	.st7{display:inline;fill:#FFFFFF;}
	.st8{display:inline;fill:none;}
	.st9{display:none;fill:#7F7F7F;}
	.st10{fill-rule:evenodd;clip-rule:evenodd;fill:#7F7F7F;}
	.st11{display:inline;fill:#FFFFFF;stroke:#231F20;stroke-miterlimit:10;}
</style>
<rect x="-212" y="-74.3" class="st0" width="1098.6" height="708.7"/>
<text transform="matrix(1 0 0 1 745.6816 332.6854)" class="st1 st2 st3">©</text>
<g class="st4">
	<path class="st5" d="M764.4,324.8c-3.8,0-6.9-2.8-6.9-7.8c0-4.3,2.4-7.9,6.9-7.9c1.8,0,3.9,0.6,5.1,2.6l2.3-2.3
		c-1.6-1.9-4.2-3.3-7.4-3.3c-6.5,0-10.3,4.8-10.3,10.9c0,6.8,4.5,10.8,10.2,10.8c3,0,5.7-1.1,7.4-3.2l-2.4-2.4
		C767.7,324.6,765.1,324.8,764.4,324.8z"/>
	<path class="st5" d="M764.2,298.6L764.2,298.6c-10.6,0-18.5,8.4-18.5,18.4c0,10.3,8.2,18.4,18.4,18.4c10.1,0,18.3-8.1,18.3-18.4
		C782.4,307,774.5,298.6,764.2,298.6z M764.1,332.8c-8.7,0-15.6-7-15.6-15.8c0-8.6,6.6-15.8,15.6-15.8l0,0c8.9,0,15.5,7.2,15.5,15.8
		C779.7,325.9,772.7,332.8,764.1,332.8z"/>
</g>
<g class="st4">
	<path class="st5" d="M530.8,426.9c-2.5,0-4.6-1.9-4.6-5.3c0-2.9,1.6-5.3,4.6-5.3c1.2,0,2.6,0.4,3.4,1.8l1.6-1.6
		c-1.1-1.3-2.8-2.2-5-2.2c-4.4,0-6.9,3.3-6.9,7.3c0,4.6,3,7.3,6.8,7.3c2,0,3.8-0.8,5-2.2l-1.6-1.6
		C533,426.8,531.3,426.9,530.8,426.9z"/>
	<path class="st5" d="M530.7,409.3L530.7,409.3c-7.1,0-12.4,5.6-12.4,12.4c0,6.9,5.5,12.4,12.4,12.4c6.8,0,12.3-5.5,12.3-12.4
		C542.9,414.9,537.6,409.3,530.7,409.3z M530.6,432.3c-5.8,0-10.5-4.7-10.5-10.6c0-5.8,4.5-10.6,10.5-10.6l0,0
		c6,0,10.4,4.8,10.4,10.6C541,427.6,536.4,432.3,530.6,432.3z"/>
</g>
<g>
	<path class="st6" d="M827.6,77.7c7.1,0,12.7,5.8,12.7,12.8c0,7.1-5.7,12.8-12.7,12.8c-7.1,0-12.8-5.6-12.8-12.8
		C814.7,83.6,820.2,77.7,827.6,77.7L827.6,77.7z M827.5,79.5c-6.2,0-10.8,5-10.8,11c0,6.1,4.8,11,10.9,11c5.9,0,10.8-4.8,10.8-11
		C838.3,84.6,833.7,79.5,827.5,79.5L827.5,79.5z M828.1,83.2c1.9,0,5.2,0.6,5.2,4c0,1.3-0.6,2.7-2.6,3.5c1.5,0.5,2.2,1.4,2.3,3.3
		c0.2,2.7,0.2,3,0.4,3.6h-2.3c-0.3-0.4-0.3-1.9-0.4-3.4c-0.1-1.4-0.3-2.7-3.4-2.7h-2.9v6H822V83.2H828.1z M824.3,85v5h3
		c0.9,0,3.5,0,3.5-2.6c0-2.4-2.3-2.4-3.2-2.4H824.3z"/>
</g>
<g class="st4">
	<path class="st7" d="M501.1,126.1c4,0,7,3.2,7,7.1c0,4-3.2,7.1-7.1,7.1c-4,0-7.1-3.1-7.1-7.1C493.9,129.3,497,126.1,501.1,126.1
		L501.1,126.1z M501,127.1c-3.4,0-6,2.8-6,6.1c0,3.4,2.7,6.1,6,6.1s6-2.7,6-6.1C507,129.9,504.5,127.1,501,127.1L501,127.1z
		 M501.4,129.1c1.1,0,2.9,0.4,2.9,2.2c0,0.7-0.3,1.5-1.4,1.9c0.8,0.3,1.2,0.8,1.3,1.8c0.1,1.5,0.1,1.6,0.2,2h-1.3
		c-0.1-0.2-0.2-1.1-0.2-1.9c-0.1-0.8-0.2-1.5-1.9-1.5h-1.6v3.3H498v-8h3.4V129.1z M499.3,130.1v2.8h1.7c0.5,0,1.9,0,1.9-1.5
		c0-1.3-1.3-1.3-1.8-1.3H499.3z"/>
</g>
<g id="guides" class="st4">
	<line class="st8" x1="411.1" y1="126.1" x2="411.1" y2="97.2"/>
	<line class="st8" x1="414.8" y1="97.2" x2="414.8" y2="77.9"/>
</g>
<g id="guides_x5F_basic">
	<g id="font_2_">
		<polygon class="st6" points="42.1,131.3 42.1,89.4 36.5,89.4 36.5,131.3 24.8,131.3 22.6,131.3 22.6,136.8 24.8,136.8 36.5,136.8 
			36.5,237.4 42.1,237.4 42.1,136.8 69.3,136.8 69.3,131.3 		"/>
		<path class="st9" d="M36.4,136.6H13v-5.2h23.4v-42H42v42h27.2v5.2H42v100.8h-5.6V136.6z"/>
		<polygon id="T_CUTTED_2_" class="st9" points="42.1,131.3 42.1,89.4 36.5,89.4 36.5,131.3 24.8,131.3 24.8,136.8 36.5,136.8 
			36.5,237.4 42.1,237.4 42.1,136.8 69.3,136.8 69.3,131.3 		"/>
		<path class="st6" d="M91.4,89.4H97v42.4v21c7-16.4,26.2-24.4,43-24c17,0,29,5.2,37,14.4s11.6,22.2,11.6,38.2v56H183v-56
			c0-14.2-3-26-10-34.4c-7-8.2-17.6-13-33-13c-13.2,0.2-24,4.2-31.4,11.4S97,163,97,176.4v61h-5.6V89.4z"/>
		<path class="st6" d="M219.4,89.4h5.6v18.2h-5.6V89.4z M219.4,131.4h5.6v106h-5.6V131.4z"/>
		<path class="st6" d="M251.2,131.4h5.6c0,7.2,0,14.2-0.2,23c7.2-18.4,25.6-26,44.4-25.6c31.6,0.8,47.4,19.8,47.4,51.6v57h-5.6v-57
			c0-28.6-14-46.8-43-46.4c-25.2,0.4-43,14.6-43,42.4v61h-5.6L251.2,131.4L251.2,131.4z"/>
		<path class="st6" d="M437.2,221.2c-20.8,0-37.2-15.8-37.2-38.2c0-10.7,4-20.6,10.1-27.1c0.2-0.2,0.3-0.4,0.5-0.5
			c7.6-7.2,15.6-10.8,26.6-10.6c10.3,0,20.1,4,26.9,11.4l14-14c-10.8-10.7-25.8-16.8-41.7-16.8c-16.1,0-30.3,6.2-40.5,16.4
			c-10.4,10.4-16.7,24.9-16.7,41.2c0,30.2,22.6,57.6,58.2,57.6c16.3,0,30.5-6.4,40.7-16.6l-14-14
			C458.1,216.4,449.1,221.1,437.2,221.2z"/>
		<path class="st6" d="M623.6,237.4h-20.8v-19c-7.6,14.6-23.2,22.2-40.4,22.2c-35,0-55.8-27.2-55.8-57.6c0-33.2,24.2-57.6,55.8-57.6
			c21.6,0,35.4,12,40.4,22.4v-19.2h20.8V237.4z M527.4,183.4c0.2,16.2,11.6,37.8,38,37.8c16.6,0,28.4-9.2,33.8-21.6
			c2.4-5,3.6-10.6,3.8-16.2c0.2-5.6-0.8-11.2-3.2-16.2c-5.2-12.6-17.4-22.4-34.8-22.4c-22.8,0-37.6,18-37.6,38.4V183.4z"/>
		<path class="st6" d="M699,157c0-8.4-5.2-14.8-15.8-14.6c-10.2,0-15.8,6.8-15.6,14c0.4,8.6,8.2,12.6,19.8,15.8
			c16.6,4.6,34.8,9.4,35.4,32.8c0.4,21.2-17.2,35.6-38.8,35.6c-17.2,0-38.6-9.8-39.6-34.6H665c0.8,13.2,11.4,17.6,19.2,17.6
			c10,0,17.8-7,17.8-16.2c-0.2-10.8-8.4-14.4-27.8-20.8c-15.2-4.6-27.2-11.8-27.4-28.2c0-20.6,16.8-33,36.6-33
			c15,0,34.6,7.4,36.2,31.6L699,157L699,157z"/>
		<path class="st9" d="M752,144.8h-19.6v-16.2H752V89.4h20.8v39.2h21v16.2h-21v92.6H752V144.8z"/>
		<polygon id="T_cutted_4_" class="st9" points="772.8,126.3 772.8,89.4 752,89.4 752,126.3 742.2,126.3 742.2,147.1 752,147.1 
			752,237.4 772.8,237.4 772.8,147.1 793.8,147.1 793.8,126.3 		"/>
		<polygon id="T_cutted_1_" class="st6" points="772.7,126.3 772.7,89.4 751.9,89.4 751.9,126.3 742.1,126.3 740.6,126.3 
			740.6,147.1 742.1,147.1 751.9,147.1 751.9,237.4 772.7,237.4 772.7,147.1 795.4,147.1 795.4,126.3 		"/>
	</g>
	<path class="st10" d="M437.7,96.4c21.9,0,44.9,13.4,59,27.2l13.9-13.9C494,93.3,470,77.3,435.8,77.3s-57.3,18-71.4,33l13.1,13.1
		C391.5,107.4,415.3,96.4,437.7,96.4z"/>
	<path class="st10" d="M527.2,93.2L542,78.3C518.4,56,488.7,29.1,435.4,29.1c-41.4,0-80.7,23.9-103.6,48.6l13.9,13.9
		c18.7-20,56.2-43.4,91.4-43.4C471.3,48.2,506.6,70.1,527.2,93.2z"/>
	<line class="st9" x1="292.6" y1="213.6" x2="278.4" y2="199.4"/>
	<line class="st9" x1="304.2" y1="206.8" x2="285.5" y2="188.1"/>
	<path class="st10" d="M437.1,269.6c-21.9,0-45-13.5-59.1-27.4l-13.9,13.9c16.5,16.5,40.7,32.7,74.8,32.7c34.2,0,57-17.7,71.2-32.7
		l-13-13.1C483.1,259,459.5,269.6,437.1,269.6z"/>
	<path class="st10" d="M347,273.3l-14.8,14.8c23.6,22.3,53,48.9,106.2,48.9c41.4,0,80.9-24.1,103.8-48.9l-13.9-13.9
		c-18.7,20-56.4,43.6-91.6,43.6C402.5,317.9,367.6,296.4,347,273.3z"/>
	<polygon class="st9" points="721.8,225.6 721.8,186.4 705.6,186.4 705.6,225.6 694.7,225.6 694.7,241.8 705.6,241.8 705.6,334.4 
		721.8,334.4 721.8,241.8 745.1,241.8 745.1,225.6 	"/>
</g>
<g id="Layer_3" class="st4">
	<rect x="390.1" y="-74.3" class="st11" width="496.5" height="721.6"/>
	<rect x="-107.8" y="-74.3" class="st11" width="496.5" height="721.6"/>
</g>
</svg>
